<svg width="1440" height="805" xmlns="http://www.w3.org/2000/svg"><g><path d="M-53,-70L-118,807L-73,364Z" fill="#c1dbec" stroke="#c1dbec"/><path d="M-53,-70L-73,364L-44,179Z" fill="#e9eaf9" stroke="#e9eaf9"/><path d="M-53,-70L-44,179L-30,99Z" fill="#f1eef9" stroke="#f1eef9"/><path d="M-53,-70L-30,99L133,-77Z" fill="#f5f0f7" stroke="#f5f0f7"/><path d="M-53,-70L133,-77L673,-118Z" fill="#e3e7f2" stroke="#e3e7f2"/><path d="M133,-77L-30,99L106,107Z" fill="#ececf6" stroke="#ececf6"/><path d="M133,-77L106,107L196,75Z" fill="#e8e9f5" stroke="#e8e9f5"/><path d="M133,-77L196,75L222,-56Z" fill="#e8eaf4" stroke="#e8eaf4"/><path d="M133,-77L222,-56L548,-75Z" fill="#e0e5f1" stroke="#e0e5f1"/><path d="M133,-77L548,-75L673,-118Z" fill="#d5dfee" stroke="#d5dfee"/><path d="M222,-56L196,75L389,80Z" fill="#dfe4f2" stroke="#dfe4f2"/><path d="M222,-56L389,80L434,-16Z" fill="#dce3f0" stroke="#dce3f0"/><path d="M222,-56L434,-16L548,-75Z" fill="#d8e1ef" stroke="#d8e1ef"/><path d="M434,-16L389,80L481,117Z" fill="#d0dcee" stroke="#d0dcee"/><path d="M434,-16L481,117L548,-75Z" fill="#d1dded" stroke="#d1dded"/><path d="M548,-75L481,117L676,20Z" fill="#c4d9e7" stroke="#c4d9e7"/><path d="M548,-75L676,20L673,-118Z" fill="#bdd7e3" stroke="#bdd7e3"/><path d="M673,-118L676,20L784,-121Z" fill="#b2d3dd" stroke="#b2d3dd"/><path d="M784,-121L676,20L833,18Z" fill="#aad1da" stroke="#aad1da"/><path d="M784,-121L833,18L970,-56Z" fill="#9cccd3" stroke="#9cccd3"/><path d="M784,-121L970,-56L1111,-101Z" fill="#8ec8cd" stroke="#8ec8cd"/><path d="M784,-121L1111,-101L1453,-102Z" fill="#80c0c2" stroke="#80c0c2"/><path d="M970,-56L833,18L1018,78Z" fill="#8fc8ce" stroke="#8fc8ce"/><path d="M970,-56L1018,78L1109,20Z" fill="#82c3c7" stroke="#82c3c7"/><path d="M970,-56L1109,20L1111,-101Z" fill="#80c3c5" stroke="#80c3c5"/><path d="M1111,-101L1109,20L1286,-71Z" fill="#80bebe" stroke="#80bebe"/><path d="M1111,-101L1286,-71L1453,-102Z" fill="#80b9b6" stroke="#80b9b6"/><path d="M1286,-71L1109,20L1332,20Z" fill="#80bbb9" stroke="#80bbb9"/><path d="M1286,-71L1332,20L1453,-102Z" fill="#80b5b1" stroke="#80b5b1"/><path d="M1453,-102L1332,20L1442,56Z" fill="#80b3ad" stroke="#80b3ad"/><path d="M1453,-102L1442,56L1599,-69Z" fill="#80afa7" stroke="#80afa7"/><path d="M1599,-69L1442,56L1548,81Z" fill="#7daca5" stroke="#7daca5"/><path d="M1599,-69L1548,81L1592,267Z" fill="#76a6a2" stroke="#76a6a2"/><path d="M-30,99L-44,179L19,215Z" fill="#e6e8f8" stroke="#e6e8f8"/><path d="M-30,99L19,215L106,107Z" fill="#e4e8f7" stroke="#e4e8f7"/><path d="M106,107L19,215L169,273Z" fill="#dae2f6" stroke="#dae2f6"/><path d="M106,107L169,273L196,75Z" fill="#dae2f4" stroke="#dae2f4"/><path d="M196,75L169,273L317,201Z" fill="#d2def3" stroke="#d2def3"/><path d="M196,75L317,201L389,80Z" fill="#d3dff1" stroke="#d3dff1"/><path d="M389,80L317,201L481,117Z" fill="#cbdaef" stroke="#cbdaef"/><path d="M481,117L317,201L533,167Z" fill="#c4d7ee" stroke="#c4d7ee"/><path d="M481,117L533,167L676,20Z" fill="#bcd5e8" stroke="#bcd5e8"/><path d="M676,20L533,167L685,210Z" fill="#afd0e3" stroke="#afd0e3"/><path d="M676,20L685,210L833,18Z" fill="#a6cedc" stroke="#a6cedc"/><path d="M833,18L685,210L823,261Z" fill="#96c7d9" stroke="#96c7d9"/><path d="M833,18L823,261L940,201Z" fill="#8ac3d3" stroke="#8ac3d3"/><path d="M833,18L940,201L1018,78Z" fill="#88c4ce" stroke="#88c4ce"/><path d="M1018,78L940,201L1112,214Z" fill="#73bcc8" stroke="#73bcc8"/><path d="M1018,78L1112,214L1109,20Z" fill="#75bcc4" stroke="#75bcc4"/><path d="M1109,20L1112,214L1234,256Z" fill="#6eb6bf" stroke="#6eb6bf"/><path d="M1109,20L1234,256L1332,20Z" fill="#75b6ba" stroke="#75b6ba"/><path d="M1332,20L1234,256L1442,56Z" fill="#74b0b2" stroke="#74b0b2"/><path d="M1442,56L1234,256L1481,279Z" fill="#6ba9af" stroke="#6ba9af"/><path d="M1442,56L1481,279L1548,81Z" fill="#71a7a8" stroke="#71a7a8"/><path d="M1548,81L1481,279L1592,267Z" fill="#6aa1a4" stroke="#6aa1a4"/><path d="M-44,179L-73,364L19,215Z" fill="#dde4f8" stroke="#dde4f8"/><path d="M19,215L-73,364L76,341Z" fill="#cdddf3" stroke="#cdddf3"/><path d="M19,215L76,341L169,273Z" fill="#d0ddf5" stroke="#d0ddf5"/><path d="M169,273L76,341L215,474Z" fill="#b2d2e7" stroke="#b2d2e7"/><path d="M169,273L215,474L277,418Z" fill="#a5cde2" stroke="#a5cde2"/><path d="M169,273L277,418L317,201Z" fill="#bed5ee" stroke="#bed5ee"/><path d="M317,201L277,418L403,337Z" fill="#b2d0e9" stroke="#b2d0e9"/><path d="M317,201L403,337L533,167Z" fill="#bed4ef" stroke="#bed4ef"/><path d="M533,167L403,337L572,403Z" fill="#a8cbe7" stroke="#a8cbe7"/><path d="M533,167L572,403L685,210Z" fill="#a6cae5" stroke="#a6cae5"/><path d="M685,210L572,403L717,425Z" fill="#85bfd7" stroke="#85bfd7"/><path d="M685,210L717,425L823,261Z" fill="#88c0d7" stroke="#88c0d7"/><path d="M823,261L717,425L837,342Z" fill="#73b9ce" stroke="#73b9ce"/><path d="M823,261L837,342L958,348Z" fill="#6fb8cc" stroke="#6fb8cc"/><path d="M823,261L958,348L940,201Z" fill="#78bbd0" stroke="#78bbd0"/><path d="M940,201L958,348L1112,214Z" fill="#6db8c9" stroke="#6db8c9"/><path d="M1112,214L958,348L1066,387Z" fill="#56b0c0" stroke="#56b0c0"/><path d="M1112,214L1066,387L1234,256Z" fill="#5eafbe" stroke="#5eafbe"/><path d="M1234,256L1066,387L1269,431Z" fill="#48a5b0" stroke="#48a5b0"/><path d="M1234,256L1269,431L1463,388Z" fill="#489fa7" stroke="#489fa7"/><path d="M1234,256L1463,388L1481,279Z" fill="#57a0a9" stroke="#57a0a9"/><path d="M1481,279L1463,388L1538,356Z" fill="#4d999e" stroke="#4d999e"/><path d="M1481,279L1538,356L1592,267Z" fill="#599ba0" stroke="#599ba0"/><path d="M1592,267L1538,356L1581,678Z" fill="#318c8c" stroke="#318c8c"/><path d="M-73,364L-118,807L-59,486Z" fill="#89c9d3" stroke="#89c9d3"/><path d="M-73,364L-59,486L76,341Z" fill="#b4d6e7" stroke="#b4d6e7"/><path d="M76,341L-59,486L86,540Z" fill="#9ecedd" stroke="#9ecedd"/><path d="M76,341L86,540L215,474Z" fill="#99cbdc" stroke="#99cbdc"/><path d="M277,418L215,474L385,537Z" fill="#85c2d5" stroke="#85c2d5"/><path d="M277,418L385,537L403,337Z" fill="#8ec4da" stroke="#8ec4da"/><path d="M403,337L385,537L551,506Z" fill="#7fbed4" stroke="#7fbed4"/><path d="M403,337L551,506L572,403Z" fill="#86bfd7" stroke="#86bfd7"/><path d="M572,403L551,506L657,543Z" fill="#64b4c8" stroke="#64b4c8"/><path d="M572,403L657,543L717,425Z" fill="#65b5c8" stroke="#65b5c8"/><path d="M717,425L657,543L805,524Z" fill="#4dadbd" stroke="#4dadbd"/><path d="M717,425L805,524L837,342Z" fill="#59b1c2" stroke="#59b1c2"/><path d="M837,342L805,524L958,348Z" fill="#55b0c0" stroke="#55b0c0"/><path d="M958,348L805,524L944,562Z" fill="#3aa7b4" stroke="#3aa7b4"/><path d="M958,348L944,562L1066,387Z" fill="#3ba7b4" stroke="#3ba7b4"/><path d="M1066,387L944,562L1140,519Z" fill="#219fa8" stroke="#219fa8"/><path d="M1066,387L1140,519L1269,431Z" fill="#2d9ea7" stroke="#2d9ea7"/><path d="M1269,431L1140,519L1254,522Z" fill="#20979c" stroke="#20979c"/><path d="M1269,431L1254,522L1464,537Z" fill="#1e9194" stroke="#1e9194"/><path d="M1269,431L1464,537L1463,388Z" fill="#2b9295" stroke="#2b9295"/><path d="M1463,388L1464,537L1538,356Z" fill="#339092" stroke="#339092"/><path d="M1538,356L1464,537L1526,575Z" fill="#208988" stroke="#208988"/><path d="M1538,356L1526,575L1581,678Z" fill="#12837f" stroke="#12837f"/><path d="M-59,486L-118,807L-40,705Z" fill="#7cbdc3" stroke="#7cbdc3"/><path d="M-59,486L-40,705L86,540Z" fill="#7cc3ce" stroke="#7cc3ce"/><path d="M86,540L-40,705L107,641Z" fill="#73bcc6" stroke="#73bcc6"/><path d="M86,540L107,641L246,632Z" fill="#6cbbc7" stroke="#6cbbc7"/><path d="M86,540L246,632L215,474Z" fill="#77bfce" stroke="#77bfce"/><path d="M215,474L246,632L385,537Z" fill="#70bbcc" stroke="#70bbcc"/><path d="M385,537L246,632L347,731Z" fill="#5eb1bf" stroke="#5eb1bf"/><path d="M385,537L347,731L479,715Z" fill="#59abb9" stroke="#59abb9"/><path d="M385,537L479,715L551,506Z" fill="#56b0c2" stroke="#56b0c2"/><path d="M551,506L479,715L646,705Z" fill="#48a7b5" stroke="#48a7b5"/><path d="M551,506L646,705L657,543Z" fill="#42aab9" stroke="#42aab9"/><path d="M657,543L646,705L771,703Z" fill="#35a0ab" stroke="#35a0ab"/><path d="M657,543L771,703L805,524Z" fill="#2fa3af" stroke="#2fa3af"/><path d="M805,524L771,703L934,666Z" fill="#209ba3" stroke="#209ba3"/><path d="M805,524L934,666L944,562Z" fill="#1b9da6" stroke="#1b9da6"/><path d="M944,562L934,666L1078,640Z" fill="#0b959b" stroke="#0b959b"/><path d="M944,562L1078,640L1140,519Z" fill="#07969c" stroke="#07969c"/><path d="M1140,519L1078,640L1254,522Z" fill="#0b9397" stroke="#0b9397"/><path d="M1254,522L1078,640L1308,714Z" fill="#00898a" stroke="#00898a"/><path d="M1254,522L1308,714L1368,718Z" fill="#008280" stroke="#008280"/><path d="M1254,522L1368,718L1464,537Z" fill="#018685" stroke="#018685"/><path d="M1464,537L1368,718L1526,575Z" fill="#00807c" stroke="#00807c"/><path d="M1526,575L1368,718L1581,678Z" fill="#007973" stroke="#007973"/><path d="M-40,705L-118,807L83,812Z" fill="#78b1b3" stroke="#78b1b3"/><path d="M-40,705L83,812L107,641Z" fill="#73b3b9" stroke="#73b3b9"/><path d="M107,641L83,812L252,828Z" fill="#6cacb2" stroke="#6cacb2"/><path d="M107,641L252,828L246,632Z" fill="#68afb8" stroke="#68afb8"/><path d="M246,632L252,828L347,731Z" fill="#62a9b3" stroke="#62a9b3"/><path d="M347,731L252,828L384,857Z" fill="#5ea0a8" stroke="#5ea0a8"/><path d="M347,731L384,857L479,715Z" fill="#59a1ab" stroke="#59a1ab"/><path d="M479,715L384,857L582,770Z" fill="#539da8" stroke="#539da8"/><path d="M479,715L582,770L646,705Z" fill="#469ea8" stroke="#469ea8"/><path d="M646,705L582,770L717,817Z" fill="#3b969e" stroke="#3b969e"/><path d="M646,705L717,817L771,703Z" fill="#32969d" stroke="#32969d"/><path d="M771,703L717,817L810,855Z" fill="#2a8e93" stroke="#2a8e93"/><path d="M771,703L810,855L930,835Z" fill="#208a8d" stroke="#208a8d"/><path d="M771,703L930,835L934,666Z" fill="#1a8f92" stroke="#1a8f92"/><path d="M934,666L930,835L1118,811Z" fill="#098685" stroke="#098685"/><path d="M934,666L1118,811L1078,640Z" fill="#028a8b" stroke="#028a8b"/><path d="M1078,640L1118,811L1230,771Z" fill="#008280" stroke="#008280"/><path d="M1078,640L1230,771L1308,714Z" fill="#00827f" stroke="#00827f"/><path d="M1308,714L1230,771L1385,846Z" fill="#00766f" stroke="#00766f"/><path d="M1308,714L1385,846L1368,718Z" fill="#00766e" stroke="#00766e"/><path d="M1368,718L1385,846L1561,824Z" fill="#006e63" stroke="#006e63"/><path d="M1368,718L1561,824L1581,678Z" fill="#007167" stroke="#007167"/><path d="M-118,807L-35,1004L83,812Z" fill="#78a7a6" stroke="#78a7a6"/><path d="M83,812L-35,1004L88,1004Z" fill="#739e9b" stroke="#739e9b"/><path d="M83,812L88,1004L248,960Z" fill="#6c9b9b" stroke="#6c9b9b"/><path d="M83,812L248,960L252,828Z" fill="#689fa2" stroke="#689fa2"/><path d="M252,828L248,960L384,857Z" fill="#619a9e" stroke="#619a9e"/><path d="M384,857L248,960L390,978Z" fill="#5d9396" stroke="#5d9396"/><path d="M384,857L390,978L506,1004Z" fill="#578e92" stroke="#578e92"/><path d="M384,857L506,1004L582,770Z" fill="#52939a" stroke="#52939a"/><path d="M582,770L506,1004L699,926Z" fill="#438b8f" stroke="#438b8f"/><path d="M582,770L699,926L717,817Z" fill="#398f93" stroke="#398f93"/><path d="M717,817L699,926L810,855Z" fill="#2e888a" stroke="#2e888a"/><path d="M810,855L699,926L878,1023Z" fill="#267e7d" stroke="#267e7d"/><path d="M810,855L878,1023L930,835Z" fill="#1b7e7c" stroke="#1b7e7c"/><path d="M930,835L878,1023L951,1001Z" fill="#147772" stroke="#147772"/><path d="M930,835L951,1001L1112,964Z" fill="#09756f" stroke="#09756f"/><path d="M930,835L1112,964L1118,811Z" fill="#017974" stroke="#017974"/><path d="M1118,811L1112,964L1230,771Z" fill="#007670" stroke="#007670"/><path d="M1230,771L1112,964L1279,1008Z" fill="#006d63" stroke="#006d63"/><path d="M1230,771L1279,1008L1385,846Z" fill="#006d63" stroke="#006d63"/><path d="M1385,846L1279,1008L1482,921Z" fill="#006456" stroke="#006456"/><path d="M1385,846L1482,921L1561,824Z" fill="#006658" stroke="#006658"/><path d="M1561,824L1482,921L1539,946Z" fill="#006050" stroke="#006050"/><path d="M-35,1004L878,1023L88,1004Z" fill="#608c8c" stroke="#608c8c"/><path d="M88,1004L878,1023L506,1004Z" fill="#528588" stroke="#528588"/><path d="M88,1004L506,1004L390,978Z" fill="#5e8d8e" stroke="#5e8d8e"/><path d="M88,1004L390,978L248,960Z" fill="#659291" stroke="#659291"/><path d="M506,1004L878,1023L699,926Z" fill="#347f7d" stroke="#347f7d"/><path d="M878,1023L1279,1008L951,1001Z" fill="#036c62" stroke="#036c62"/><path d="M951,1001L1279,1008L1112,964Z" fill="#006a5f" stroke="#006a5f"/><path d="M1279,1008L1539,946L1482,921Z" fill="#005f4e" stroke="#005f4e"/></g></svg>